<!-- Source https://icomoon.io -->
<svg aria-hidden="true" style="position: absolute; width: 0; height: 0; overflow: hidden;" version="1.1" xmlns="http://www.w3.org/2000/svg" xmlns:xlink="http://www.w3.org/1999/xlink">
<defs>
<symbol id="wcv-icon-times" viewBox="0 0 22 32">
<title>times</title>
<path d="M15.17 16l6.254-6.254c0.767-0.768 0.767-2.012 0-2.78l-1.39-1.39c-0.767-0.768-2.012-0.768-2.78 0l-6.254 6.254-6.254-6.254c-0.768-0.768-2.012-0.768-2.78 0l-1.39 1.39c-0.767 0.768-0.767 2.012 0 2.78l6.254 6.254-6.254 6.254c-0.767 0.767-0.767 2.012 0 2.78l1.39 1.39c0.767 0.767 2.013 0.767 2.78 0l6.254-6.254 6.254 6.254c0.767 0.767 2.012 0.767 2.78 0l1.39-1.39c0.767-0.767 0.767-2.012 0-2.78l-6.254-6.254z"></path>
</symbol>
<symbol id="wcv-icon-star" viewBox="0 0 36 32">
<title>star</title>
<path d="M16.206 1.113l-4.081 8.275-9.131 1.331c-1.637 0.238-2.294 2.256-1.106 3.412l6.606 6.438-1.563 9.094c-0.281 1.644 1.45 2.875 2.9 2.106l8.169-4.294 8.169 4.294c1.45 0.762 3.181-0.462 2.9-2.106l-1.563-9.094 6.606-6.438c1.188-1.156 0.531-3.175-1.106-3.412l-9.131-1.331-4.081-8.275c-0.731-1.475-2.85-1.494-3.587 0z"></path>
</symbol>
<symbol id="wcv-icon-star-o" viewBox="0 0 36 32">
<title>star-o</title>
<path d="M33.006 10.719l-9.131-1.331-4.081-8.275c-0.731-1.475-2.85-1.494-3.587 0l-4.081 8.275-9.131 1.331c-1.637 0.238-2.294 2.256-1.106 3.412l6.606 6.438-1.563 9.094c-0.281 1.644 1.45 2.875 2.9 2.106l8.169-4.294 8.169 4.294c1.45 0.762 3.181-0.462 2.9-2.106l-1.563-9.094 6.606-6.438c1.188-1.156 0.531-3.175-1.106-3.412zM24.288 19.519l1.481 8.65-7.769-4.081-7.769 4.081 1.481-8.65-6.287-6.125 8.688-1.262 3.888-7.875 3.887 7.875 8.688 1.262-6.287 6.125z"></path>
</symbol>
<symbol id="wcv-icon-twitter" viewBox="0 0 32 32">
<title>twitter</title>
<path d="M28.711 9.482c0.020 0.284 0.020 0.569 0.020 0.853 0 8.67-6.599 18.66-18.66 18.66-3.716 0-7.168-1.076-10.071-2.944 0.528 0.061 1.036 0.081 1.584 0.081 3.066 0 5.888-1.035 8.142-2.802-2.883-0.061-5.3-1.949-6.132-4.548 0.406 0.061 0.812 0.102 1.239 0.102 0.589 0 1.178-0.081 1.726-0.223-3.005-0.609-5.259-3.249-5.259-6.437v-0.081c0.873 0.487 1.888 0.792 2.964 0.832-1.766-1.178-2.924-3.188-2.924-5.462 0-1.218 0.325-2.335 0.893-3.31 3.228 3.98 8.081 6.579 13.523 6.863-0.101-0.487-0.162-0.995-0.162-1.502 0-3.614 2.924-6.558 6.558-6.558 1.888 0 3.594 0.792 4.792 2.071 1.482-0.284 2.904-0.832 4.162-1.584-0.487 1.523-1.523 2.802-2.883 3.614 1.32-0.142 2.599-0.508 3.777-1.015-0.893 1.299-2.010 2.457-3.289 3.391z"></path>
</symbol>
<symbol id="wcv-icon-twitter-square" viewBox="0 0 28 32">
<title>twitter-square</title>
<path d="M25 2h-22c-1.656 0-3 1.344-3 3v22c0 1.656 1.344 3 3 3h22c1.656 0 3-1.344 3-3v-22c0-1.656-1.344-3-3-3zM21.944 11.925c0.012 0.175 0.012 0.356 0.012 0.531 0 5.419-4.125 11.662-11.662 11.662-2.325 0-4.481-0.675-6.294-1.837 0.331 0.038 0.65 0.050 0.987 0.050 1.919 0 3.681-0.65 5.088-1.75-1.8-0.038-3.313-1.219-3.831-2.844 0.631 0.094 1.2 0.094 1.85-0.075-1.875-0.381-3.281-2.031-3.281-4.025v-0.050c0.544 0.306 1.181 0.494 1.85 0.519-1.107-0.744-1.825-1.991-1.825-3.406 0-0.002 0-0.005 0-0.007v0c0-0.762 0.2-1.463 0.556-2.069 2.019 2.487 5.050 4.112 8.45 4.287-0.581-2.781 1.5-5.037 4-5.037 1.181 0 2.244 0.494 2.994 1.294 0.925-0.175 1.813-0.519 2.6-0.988-0.306 0.95-0.95 1.75-1.8 2.256 0.825-0.088 1.625-0.319 2.363-0.637-0.556 0.819-1.256 1.544-2.056 2.125z"></path>
</symbol>
<symbol id="wcv-icon-instagram" viewBox="0 0 28 32">
<title>instagram</title>
<path d="M14.006 8.813c-3.975 0-7.181 3.206-7.181 7.181s3.206 7.181 7.181 7.181 7.181-3.206 7.181-7.181-3.206-7.181-7.181-7.181zM14.006 20.663c-2.569 0-4.669-2.094-4.669-4.669s2.094-4.669 4.669-4.669 4.669 2.094 4.669 4.669-2.1 4.669-4.669 4.669zM23.156 8.519c0 0.931-0.75 1.675-1.675 1.675-0.931 0-1.675-0.75-1.675-1.675s0.75-1.675 1.675-1.675 1.675 0.75 1.675 1.675zM27.913 10.219c-0.106-2.244-0.619-4.231-2.262-5.869-1.637-1.638-3.625-2.15-5.869-2.263-2.313-0.131-9.244-0.131-11.556 0-2.237 0.106-4.225 0.619-5.869 2.256s-2.15 3.625-2.263 5.869c-0.131 2.313-0.131 9.244 0 11.556 0.106 2.244 0.619 4.231 2.263 5.869s3.625 2.15 5.869 2.262c2.313 0.131 9.244 0.131 11.556 0 2.244-0.106 4.231-0.619 5.869-2.262 1.637-1.637 2.15-3.625 2.262-5.869 0.131-2.313 0.131-9.238 0-11.55zM24.925 24.25c-0.488 1.225-1.431 2.169-2.663 2.663-1.844 0.731-6.219 0.563-8.256 0.563s-6.419 0.163-8.256-0.563c-1.225-0.488-2.169-1.431-2.663-2.663-0.731-1.844-0.563-6.219-0.563-8.256s-0.163-6.419 0.563-8.256c0.487-1.225 1.431-2.169 2.663-2.662 1.844-0.731 6.219-0.563 8.256-0.563s6.419-0.162 8.256 0.563c1.225 0.487 2.169 1.431 2.663 2.662 0.731 1.844 0.563 6.219 0.563 8.256s0.169 6.419-0.563 8.256z"></path>
</symbol>
<symbol id="wcv-icon-facebook" viewBox="0 0 28 32">
<title>facebook</title>
<path d="M28 3.544v24.906c0 0.856-0.694 1.544-1.544 1.544h-7.137v-10.837h3.637l0.544-4.225h-4.188v-2.7c0-1.225 0.337-2.056 2.094-2.056h2.238v-3.781c-0.387-0.050-1.712-0.169-3.262-0.169-3.225 0-5.438 1.969-5.438 5.588v3.119h-3.65v4.225h3.65v10.844h-13.4c-0.85 0-1.544-0.694-1.544-1.544v-24.913c0-0.85 0.694-1.544 1.544-1.544h24.906c0.856 0 1.55 0.694 1.55 1.544z"></path>
</symbol>
<symbol id="wcv-icon-facebook-square" viewBox="0 0 28 32">
<title>facebook-square</title>
<path d="M28 5v22c0 1.656-1.344 3-3 3h-5.331v-11.075h3.788l0.544-4.225h-4.331v-2.7c0-1.225 0.337-2.056 2.094-2.056h2.238v-3.775c-0.387-0.050-1.712-0.169-3.262-0.169-3.225 0-5.438 1.969-5.438 5.587v3.119h-3.8v4.225h3.806v11.069h-12.306c-1.656 0-3-1.344-3-3v-22c0-1.656 1.344-3 3-3h22c1.656 0 3 1.344 3 3z"></path>
</symbol>
<symbol id="wcv-icon-linkedin-in" viewBox="0 0 28 32">
<title>linkedin-in</title>
<path d="M6.269 28h-5.806v-18.694h5.806v18.694zM3.362 6.756c-1.856 0-3.362-1.537-3.362-3.394s1.506-3.362 3.362-3.362 3.362 1.506 3.362 3.362-1.506 3.394-3.362 3.394zM28 28h-5.794v-9.1c0-2.169-0.044-4.95-3.019-4.95-3.019 0-3.481 2.356-3.481 4.794v9.256h-5.8v-18.694h5.569v2.55h0.081c0.775-1.469 2.669-3.019 5.494-3.019 5.875 0 6.956 3.869 6.956 8.894v10.269h-0.006z"></path>
</symbol>
<symbol id="wcv-icon-linkedin" viewBox="0 0 28 32">
<title>linkedin</title>
<path d="M26 2h-24.006c-1.1 0-1.994 0.906-1.994 2.019v23.962c0 1.113 0.894 2.019 1.994 2.019h24.006c1.1 0 2-0.906 2-2.019v-23.962c0-1.112-0.9-2.019-2-2.019zM8.463 26h-4.15v-13.363h4.156v13.363zM6.388 10.813c-1.331 0-2.406-1.081-2.406-2.406s1.075-2.406 2.406-2.406c1.325 0 2.406 1.081 2.406 2.406 0 1.331-1.075 2.406-2.406 2.406zM24.019 26h-4.15v-6.5c0-1.55-0.031-3.544-2.156-3.544-2.162 0-2.494 1.688-2.494 3.431v6.613h-4.15v-13.363h3.981v1.825h0.056c0.556-1.050 1.912-2.156 3.931-2.156 4.2 0 4.981 2.769 4.981 6.369v7.325z"></path>
</symbol>
<symbol id="wcv-icon-youtube" viewBox="0 0 36 32">
<title>youtube</title>
<path d="M34.353 7.755c-0.393-1.478-1.549-2.642-3.018-3.037-2.662-0.718-13.336-0.718-13.336-0.718s-10.674 0-13.336 0.718c-1.469 0.395-2.625 1.559-3.018 3.037-0.713 2.679-0.713 8.269-0.713 8.269s0 5.59 0.713 8.269c0.393 1.478 1.549 2.594 3.018 2.989 2.662 0.718 13.336 0.718 13.336 0.718s10.674 0 13.336-0.718c1.469-0.395 2.625-1.511 3.018-2.989 0.713-2.679 0.713-8.269 0.713-8.269s0-5.59-0.713-8.269zM14.509 21.099v-10.15l8.921 5.075-8.921 5.075z"></path>
</symbol>
<symbol id="wcv-icon-youtube-square" viewBox="0 0 28 32">
<title>youtube-square</title>
<path d="M11.675 12.631l5.95 3.381-5.95 3.381v-6.762zM28 5v22c0 1.656-1.344 3-3 3h-22c-1.656 0-3-1.344-3-3v-22c0-1.656 1.344-3 3-3h22c1.656 0 3 1.344 3 3zM25.375 16.019s0-3.725-0.475-5.512c-0.262-0.988-1.031-1.762-2.012-2.025-1.769-0.481-8.887-0.481-8.887-0.481s-7.119 0-8.887 0.481c-0.981 0.262-1.75 1.037-2.013 2.025-0.475 1.781-0.475 5.512-0.475 5.512s0 3.725 0.475 5.512c0.263 0.988 1.031 1.731 2.013 1.994 1.769 0.475 8.887 0.475 8.887 0.475s7.119 0 8.887-0.481c0.981-0.262 1.75-1.006 2.012-1.994 0.475-1.781 0.475-5.506 0.475-5.506z"></path>
</symbol>
<symbol id="wcv-icon-pinterest" viewBox="0 0 31 32">
<title>pinterest</title>
<path d="M31 16c0 8.563-6.938 15.5-15.5 15.5-1.6 0-3.137-0.244-4.588-0.694 0.631-1.031 1.575-2.719 1.925-4.063 0.188-0.725 0.963-3.688 0.963-3.688 0.506 0.962 1.981 1.781 3.55 1.781 4.675 0 8.044-4.3 8.044-9.644 0-5.119-4.181-8.95-9.556-8.95-6.688 0-10.244 4.488-10.244 9.381 0 2.275 1.213 5.106 3.144 6.006 0.294 0.137 0.45 0.075 0.519-0.206 0.050-0.212 0.313-1.269 0.431-1.756 0.037-0.156 0.019-0.294-0.106-0.444-0.631-0.781-1.144-2.206-1.144-3.537 0-3.419 2.588-6.725 7-6.725 3.806 0 6.475 2.594 6.475 6.306 0 4.194-2.119 7.1-4.875 7.1-1.519 0-2.662-1.256-2.294-2.8 0.438-1.844 1.281-3.831 1.281-5.162 0-1.188-0.637-2.181-1.963-2.181-1.556 0-2.806 1.606-2.806 3.762 0 1.375 0.463 2.3 0.463 2.3s-1.531 6.488-1.813 7.7c-0.313 1.337-0.188 3.225-0.056 4.45-5.763-2.256-9.85-7.869-9.85-14.438 0-8.563 6.938-15.5 15.5-15.5s15.5 6.938 15.5 15.5z"></path>
</symbol>
<symbol id="wcv-icon-pinterest-square" viewBox="0 0 28 32">
<title>pinterest-square</title>
<path d="M28 5v22c0 1.656-1.344 3-3 3h-15.35c0.613-1.025 1.4-2.5 1.713-3.706 0.188-0.719 0.956-3.65 0.956-3.65 0.5 0.956 1.963 1.762 3.519 1.762 4.631 0 7.963-4.256 7.963-9.544 0-5.069-4.137-8.863-9.463-8.863-6.625 0-10.137 4.444-10.137 9.287 0 2.25 1.2 5.050 3.112 5.944 0.294 0.137 0.444 0.075 0.513-0.206 0.050-0.212 0.313-1.256 0.425-1.738 0.037-0.156 0.019-0.288-0.106-0.438-0.631-0.769-1.144-2.181-1.144-3.5 0-3.387 2.563-6.662 6.931-6.662 3.769 0 6.413 2.569 6.413 6.244 0 4.15-2.094 7.025-4.825 7.025-1.506 0-2.631-1.244-2.275-2.775 0.431-1.825 1.269-3.794 1.269-5.113 0-3.313-4.719-2.856-4.719 1.563 0 1.356 0.456 2.281 0.456 2.281-1.963 8.3-2.256 8.406-1.85 12.037l0.137 0.050h-5.537c-1.656 0-3-1.344-3-3v-22c0-1.656 1.344-3 3-3h22c1.656 0 3 1.344 3 3z"></path>
</symbol>
<symbol id="wcv-icon-pinterest-p" viewBox="0 0 24 32">
<title>pinterest-p</title>
<path d="M12.75 0.406c-6.412 0-12.75 4.275-12.75 11.194 0 4.4 2.475 6.9 3.975 6.9 0.619 0 0.975-1.725 0.975-2.212 0-0.581-1.481-1.819-1.481-4.238 0-5.025 3.825-8.588 8.775-8.588 4.256 0 7.406 2.419 7.406 6.862 0 3.319-1.331 9.544-5.644 9.544-1.556 0-2.887-1.125-2.887-2.738 0-2.363 1.65-4.65 1.65-7.088 0-4.138-5.869-3.388-5.869 1.613 0 1.050 0.131 2.213 0.6 3.169-0.862 3.712-2.625 9.244-2.625 13.069 0 1.181 0.169 2.344 0.281 3.525 0.213 0.238 0.106 0.212 0.431 0.094 3.15-4.313 3.037-5.156 4.463-10.8 0.769 1.462 2.756 2.25 4.331 2.25 6.637 0 9.619-6.469 9.619-12.3 0-6.206-5.363-10.256-11.25-10.256z"></path>
</symbol>
<symbol id="wcv-icon-snapchat" viewBox="0 0 31 32">
<title>snapchat</title>
<path d="M15.5 0.5c-8.563 0-15.5 6.938-15.5 15.5s6.938 15.5 15.5 15.5 15.5-6.938 15.5-15.5-6.938-15.5-15.5-15.5zM26.094 21.681c-0.219 0.506-1.131 0.875-2.8 1.137-0.087 0.119-0.156 0.613-0.269 0.994-0.069 0.231-0.231 0.369-0.506 0.369h-0.012c-0.387 0-0.8-0.181-1.613-0.181-1.1 0-1.481 0.25-2.337 0.856-0.906 0.644-1.775 1.194-3.075 1.137-1.313 0.1-2.412-0.7-3.031-1.137-0.863-0.606-1.238-0.856-2.338-0.856-0.781 0-1.275 0.194-1.613 0.194s-0.469-0.206-0.519-0.375c-0.112-0.381-0.181-0.881-0.269-1-0.862-0.131-2.8-0.469-2.844-1.337-0.013-0.225 0.144-0.425 0.369-0.462 2.894-0.475 4.194-3.444 4.25-3.569 0-0.006 0.006-0.012 0.012-0.019 0.156-0.313 0.188-0.575 0.1-0.781-0.213-0.494-1.119-0.669-1.5-0.825-0.987-0.387-1.125-0.838-1.063-1.144 0.1-0.531 0.9-0.863 1.369-0.644 0.369 0.175 0.7 0.262 0.981 0.262 0.206 0 0.344-0.050 0.412-0.088-0.088-1.494-0.294-3.625 0.238-4.819 1.406-3.144 4.381-3.394 5.256-3.394 0.037 0 0.381-0.006 0.419-0.006 2.169 0 4.25 1.112 5.269 3.394 0.531 1.194 0.325 3.319 0.238 4.819 0.069 0.037 0.181 0.081 0.356 0.088 0.269-0.012 0.575-0.1 0.919-0.262 0.25-0.119 0.6-0.1 0.85 0 0.394 0.144 0.644 0.425 0.65 0.744 0.006 0.406-0.356 0.756-1.075 1.037-0.087 0.037-0.194 0.069-0.306 0.106-0.406 0.131-1.025 0.325-1.188 0.719-0.087 0.206-0.050 0.469 0.1 0.781 0.006 0.006 0.006 0.012 0.012 0.019 0.056 0.125 1.356 3.094 4.25 3.569 0.25 0.063 0.444 0.344 0.306 0.675z"></path>
</symbol>
<symbol id="wcv-icon-snapchat-square" viewBox="0 0 28 32">
<title>snapchat-square</title>
<path d="M25 2h-22c-1.656 0-3 1.344-3 3v22c0 1.656 1.344 3 3 3h22c1.656 0 3-1.344 3-3v-22c0-1.656-1.344-3-3-3zM24.594 21.681c-0.219 0.506-1.131 0.875-2.8 1.137-0.087 0.119-0.156 0.613-0.269 0.994-0.069 0.231-0.231 0.369-0.506 0.369h-0.012c-0.387 0-0.8-0.181-1.613-0.181-1.1 0-1.481 0.25-2.337 0.856-0.906 0.644-1.775 1.194-3.075 1.137-1.313 0.1-2.412-0.7-3.031-1.137-0.863-0.606-1.238-0.856-2.338-0.856-0.781 0-1.275 0.194-1.612 0.194s-0.469-0.206-0.519-0.375c-0.112-0.381-0.181-0.881-0.269-1-0.862-0.131-2.8-0.469-2.844-1.337-0.013-0.225 0.144-0.425 0.369-0.462 2.894-0.475 4.194-3.444 4.25-3.569 0-0.006 0.006-0.012 0.013-0.019 0.156-0.313 0.188-0.575 0.1-0.781-0.213-0.494-1.119-0.669-1.5-0.825-0.987-0.387-1.125-0.838-1.063-1.144 0.1-0.531 0.9-0.863 1.369-0.644 0.369 0.175 0.7 0.262 0.981 0.262 0.206 0 0.344-0.050 0.413-0.088-0.088-1.494-0.294-3.625 0.238-4.819 1.406-3.144 4.381-3.394 5.256-3.394 0.037 0 0.381-0.006 0.419-0.006 2.169 0 4.25 1.112 5.269 3.394 0.531 1.194 0.325 3.319 0.238 4.819 0.069 0.037 0.181 0.081 0.356 0.088 0.269-0.012 0.575-0.1 0.919-0.262 0.25-0.119 0.6-0.1 0.85 0 0.394 0.144 0.644 0.425 0.65 0.744 0.006 0.406-0.356 0.756-1.075 1.037-0.087 0.037-0.194 0.069-0.306 0.106-0.406 0.131-1.025 0.325-1.188 0.719-0.087 0.206-0.050 0.469 0.1 0.781 0.006 0.006 0.006 0.012 0.012 0.019 0.056 0.125 1.356 3.094 4.25 3.569 0.25 0.063 0.444 0.344 0.306 0.675z"></path>
</symbol>
<symbol id="wcv-icon-snapchat-ghost" viewBox="0 0 32 32">
<title>snapchat-ghost</title>
<path d="M31.928 24.542c-0.326 0.76-1.702 1.318-4.21 1.707-0.129 0.174-0.236 0.918-0.407 1.497-0.102 0.348-0.351 0.554-0.758 0.554l-0.019-0c-0.587 0-1.2-0.27-2.428-0.27-1.658 0-2.229 0.378-3.516 1.287-1.364 0.965-2.673 1.798-4.627 1.712-1.978 0.146-3.627-1.057-4.554-1.713-1.295-0.915-1.864-1.286-3.515-1.286-1.179 0-1.921 0.295-2.428 0.295-0.505 0-0.701-0.308-0.776-0.565-0.169-0.574-0.275-1.329-0.408-1.508-1.292-0.201-4.207-0.709-4.281-2.009-0.001-0.011-0.001-0.024-0.001-0.037 0-0.329 0.239-0.601 0.552-0.655l0.004-0.001c4.349-0.716 6.308-5.181 6.389-5.371 0.005-0.011 0.010-0.021 0.015-0.032 0.232-0.471 0.284-0.866 0.154-1.172-0.316-0.744-1.679-1.010-2.253-1.237-1.482-0.585-1.688-1.258-1.601-1.719 0.152-0.802 1.358-1.296 2.063-0.966 0.557 0.261 1.053 0.394 1.472 0.394 0.314 0 0.513-0.075 0.623-0.136-0.128-2.246-0.444-5.456 0.355-7.248 2.111-4.732 6.585-5.1 7.905-5.1 0.059 0 0.571-0.006 0.632-0.006 3.259 0 6.391 1.674 7.92 5.103 0.799 1.791 0.484 4.987 0.356 7.251 0.099 0.055 0.272 0.121 0.537 0.134 0.4-0.018 0.863-0.149 1.379-0.391 0.38-0.178 0.9-0.154 1.28 0.004l0.002 0.001c0.592 0.212 0.965 0.638 0.974 1.117 0.012 0.609-0.533 1.135-1.617 1.564-0.132 0.052-0.293 0.103-0.465 0.158-0.612 0.194-1.538 0.488-1.788 1.079-0.13 0.306-0.078 0.701 0.154 1.172 0.005 0.011 0.010 0.021 0.015 0.032 0.081 0.189 2.038 4.654 6.389 5.371 0.402 0.066 0.698 0.492 0.483 0.991z"></path>
</symbol>
<symbol id="wcv-icon-telegram-square" viewBox="0 0 32 32">
<title>telegram-square</title>
<path d="M0 0v32h32v-32h-32zM27.064 7.081l-3.76 18.084c-0.089 0.427-0.589 0.62-0.942 0.364l-5.132-3.726c-0.312-0.226-0.736-0.214-1.035 0.029l-2.846 2.32c-0.33 0.27-0.828 0.12-0.954-0.287l-1.976-6.354-5.105-1.905c-0.519-0.194-0.523-0.926-0.006-1.126l20.95-8.082c0.444-0.172 0.902 0.217 0.806 0.684z"></path>
<path d="M22.053 10.351l-9.977 6.144c-0.382 0.236-0.562 0.698-0.439 1.13l1.079 3.79c0.077 0.269 0.466 0.241 0.504-0.036l0.28-2.078c0.053-0.391 0.24-0.752 0.529-1.021l8.233-7.653c0.154-0.143-0.030-0.385-0.21-0.275z"></path>
</symbol>
<symbol id="wcv-icon-telegram-sqaure-o" viewBox="0 0 32 32">
<title>telegram-sqaure-o</title>
<path d="M24.125 3.313c0 0.345-0.28 0.625-0.625 0.625s-0.625-0.28-0.625-0.625 0.28-0.625 0.625-0.625 0.625 0.28 0.625 0.625z"></path>
<path d="M24.835 8.855l-18.438 7.187c-0.24 0.093-0.398 0.325-0.398 0.583s0.158 0.489 0.399 0.582l3.595 1.397c0.412 1.029 2.277 5.693 2.306 5.763 0.173 0.41 0.706 0.511 1.017 0.199l2.784-2.784 5.135 4.082c0.359 0.286 0.901 0.099 1-0.357l3.438-15.938c0.102-0.478-0.367-0.897-0.838-0.714zM18.252 12.763l-7.837 4.664-2.067-0.803zM20.099 13.119l-6.395 5.833c-0.083 0.076-0.151 0.184-0.182 0.3-0 0-0.001 0.001-0.001 0.002l-0.766 2.888-1.503-3.758zM14.484 20.497l0.632 0.502-1.042 1.042zM21.226 24.26c-1.193-0.948-5.032-3.999-6.138-4.878l8.951-8.165z"></path>
<path d="M28.875 0h-25.75c-1.723 0-3.125 1.402-3.125 3.125v25.75c0 1.723 1.402 3.125 3.125 3.125h25.75c1.723 0 3.125-1.402 3.125-3.125v-25.75c0-1.723-1.402-3.125-3.125-3.125zM30.75 28.875c0 1.034-0.841 1.875-1.875 1.875h-25.75c-1.034 0-1.875-0.841-1.875-1.875v-25.75c0-1.034 0.841-1.875 1.875-1.875h25.75c1.034 0 1.875 0.841 1.875 1.875z"></path>
<path d="M8.5 3.938h12.5c0.345 0 0.625-0.28 0.625-0.625s-0.28-0.625-0.625-0.625h-12.5c-0.345 0-0.625 0.28-0.625 0.625s0.28 0.625 0.625 0.625z"></path>
</symbol>
<symbol id="wcv-icon-telegram" viewBox="0 0 32 32">
<title>telegram</title>
<path d="M16 0c-8.838 0-16 7.162-16 16s7.162 16 16 16 16-7.163 16-16-7.163-16-16-16zM23.863 10.969l-2.625 12.369c-0.181 0.881-0.712 1.087-1.45 0.681l-4-2.956-1.919 1.869c-0.225 0.219-0.4 0.4-0.8 0.4-0.519 0-0.431-0.194-0.606-0.688l-1.363-4.475-3.956-1.231c-0.856-0.262-0.862-0.85 0.194-1.269l15.412-5.95c0.7-0.319 1.381 0.169 1.113 1.25z"></path>
</symbol>
<symbol id="wcv-icon-pen-square" viewBox="0 0 28 32">
<title>pen-square</title>
<path d="M25 30h-22c-1.656 0-3-1.344-3-3v-22c0-1.656 1.344-3 3-3h22c1.656 0 3 1.344 3 3v22c0 1.656-1.344 3-3 3zM14.881 11.119l-8.481 8.481-0.394 3.569c-0.050 0.475 0.35 0.881 0.831 0.831l3.569-0.394 8.481-8.481c0.144-0.144 0.144-0.381 0-0.531l-3.469-3.469c-0.156-0.15-0.394-0.15-0.537-0.006zM21.563 10.319l-1.881-1.881c-0.587-0.588-1.538-0.588-2.119 0l-1.444 1.444c-0.144 0.144-0.144 0.381 0 0.531l3.469 3.469c0.144 0.144 0.381 0.144 0.531 0l1.444-1.444c0.581-0.581 0.581-1.531 0-2.119z"></path>
</symbol>
<symbol id="wcv-icon-check-square" viewBox="0 0 28 32">
<title>check-square</title>
<path d="M25 30h-22c-1.657 0-3-1.343-3-3v-22c0-1.657 1.343-3 3-3h22c1.657 0 3 1.343 3 3v22c0 1.657-1.343 3-3 3zM12.207 23.871l11.5-11.5c0.39-0.39 0.39-1.024 0-1.414l-1.414-1.414c-0.39-0.39-1.024-0.391-1.414 0l-9.379 9.379-4.379-4.379c-0.391-0.39-1.024-0.39-1.414 0l-1.414 1.414c-0.39 0.391-0.39 1.024 0 1.414l6.5 6.5c0.391 0.391 1.024 0.391 1.414 0z"></path>
</symbol>
<symbol id="wcv-icon-sort" viewBox="0 0 16 28">
<title>sort</title>
<path d="M16 17c0 0.266-0.109 0.516-0.297 0.703l-7 7c-0.187 0.187-0.438 0.297-0.703 0.297s-0.516-0.109-0.703-0.297l-7-7c-0.187-0.187-0.297-0.438-0.297-0.703 0-0.547 0.453-1 1-1h14c0.547 0 1 0.453 1 1zM16 11c0 0.547-0.453 1-1 1h-14c-0.547 0-1-0.453-1-1 0-0.266 0.109-0.516 0.297-0.703l7-7c0.187-0.187 0.438-0.297 0.703-0.297s0.516 0.109 0.703 0.297l7 7c0.187 0.187 0.297 0.438 0.297 0.703z"></path>
</symbol>
<symbol id="wcv-icon-hdd" viewBox="0 0 36 32">
<title>hdd</title>
<path d="M36 19v6c0 1.657-1.343 3-3 3h-30c-1.657 0-3-1.343-3-3v-6c0-1.657 1.343-3 3-3h30c1.657 0 3 1.343 3 3zM33 14c0.001 0 0.003 0 0.004 0 0.693 0 1.352 0.142 1.952 0.398l-0.032-0.012-6.033-9.049c-0.546-0.81-1.46-1.336-2.496-1.336h-16.789c-1.037 0-1.95 0.526-2.489 1.325l-0.007 0.011-6.033 9.049c0.567-0.244 1.226-0.385 1.919-0.385 0.002 0 0.003 0 0.005 0h30zM30 20c-1.105 0-2 0.895-2 2s0.895 2 2 2 2-0.895 2-2-0.895-2-2-2zM24 20c-1.105 0-2 0.895-2 2s0.895 2 2 2 2-0.895 2-2-0.895-2-2-2z"></path>
</symbol>
<symbol id="wcv-icon-file-alt" viewBox="0 0 24 32">
<title>file-alt</title>
<path d="M18 15.5v1.75c0 0.413-0.337 0.75-0.75 0.75h-10.5c-0.412 0-0.75-0.337-0.75-0.75v-1.75c0-0.412 0.338-0.75 0.75-0.75h10.5c0.413 0 0.75 0.338 0.75 0.75zM17.25 20h-10.5c-0.412 0-0.75 0.337-0.75 0.75v1.75c0 0.413 0.338 0.75 0.75 0.75h10.5c0.413 0 0.75-0.337 0.75-0.75v-1.75c0-0.413-0.337-0.75-0.75-0.75zM24 8.244v20.756c0 1.656-1.344 3-3 3h-18c-1.656 0-3-1.344-3-3v-26c0-1.656 1.344-3 3-3h12.756c0.794 0 1.556 0.319 2.119 0.881l5.244 5.244c0.563 0.556 0.881 1.325 0.881 2.119zM16 3.244v4.756h4.756l-4.756-4.756zM21 29v-18h-6.5c-0.831 0-1.5-0.669-1.5-1.5v-6.5h-10v26h18z"></path>
</symbol>
<symbol id="wcv-icon-check-circle-o" viewBox="0 0 32 32">
<title>check-circle-o</title>
<path d="M16 0.5c-8.56 0-15.5 6.94-15.5 15.5s6.94 15.5 15.5 15.5 15.5-6.94 15.5-15.5-6.94-15.5-15.5-15.5zM16 3.5c6.908 0 12.5 5.591 12.5 12.5 0 6.908-5.591 12.5-12.5 12.5-6.908 0-12.5-5.591-12.5-12.5 0-6.908 5.591-12.5 12.5-12.5zM24.763 11.642l-1.409-1.42c-0.292-0.294-0.767-0.296-1.061-0.004l-8.835 8.764-3.737-3.767c-0.292-0.294-0.767-0.296-1.061-0.004l-1.42 1.409c-0.294 0.292-0.296 0.767-0.004 1.061l5.674 5.72c0.292 0.294 0.767 0.296 1.061 0.004l10.787-10.7c0.294-0.292 0.296-0.767 0.004-1.061z"></path>
</symbol>
<symbol id="wcv-icon-check-circle" viewBox="0 0 32 32">
<title>check-circle</title>
<path d="M31.5 16c0 8.56-6.94 15.5-15.5 15.5s-15.5-6.94-15.5-15.5 6.94-15.5 15.5-15.5 15.5 6.94 15.5 15.5zM14.207 24.207l11.5-11.5c0.39-0.39 0.39-1.024 0-1.414l-1.414-1.414c-0.39-0.391-1.024-0.391-1.414 0l-9.379 9.379-4.379-4.379c-0.39-0.39-1.024-0.39-1.414 0l-1.414 1.414c-0.391 0.39-0.391 1.024 0 1.414l6.5 6.5c0.391 0.391 1.024 0.391 1.414 0z"></path>
</symbol>
<symbol id="wcv-icon-home" viewBox="0 0 32 32">
<title>home</title>
<path d="M32 18.451l-16-12.42-16 12.42v-5.064l16-12.42 16 12.42zM28 18v12h-8v-8h-8v8h-8v-12l12-9z"></path>
</symbol>
<symbol id="wcv-icon-info-circle" viewBox="0 0 32 32">
<title>info-circle</title>
<path d="M16 0.5c-8.56 0-15.5 6.943-15.5 15.5 0 8.562 6.94 15.5 15.5 15.5s15.5-6.938 15.5-15.5c0-8.557-6.94-15.5-15.5-15.5zM16 7.375c1.45 0 2.625 1.175 2.625 2.625s-1.175 2.625-2.625 2.625-2.625-1.175-2.625-2.625 1.175-2.625 2.625-2.625zM19.5 23.25c0 0.414-0.336 0.75-0.75 0.75h-5.5c-0.414 0-0.75-0.336-0.75-0.75v-1.5c0-0.414 0.336-0.75 0.75-0.75h0.75v-4h-0.75c-0.414 0-0.75-0.336-0.75-0.75v-1.5c0-0.414 0.336-0.75 0.75-0.75h4c0.414 0 0.75 0.336 0.75 0.75v6.25h0.75c0.414 0 0.75 0.336 0.75 0.75v1.5z"></path>
</symbol>
<symbol id="wcv-icon-plane" viewBox="0 0 36 32">
<title>plane</title>
<path d="M30 12h-7.143l-6.569-11.496c-0.176-0.303-0.499-0.504-0.869-0.504-0 0-0 0-0 0h-4.094c-0.664 0-1.144 0.636-0.961 1.274l3.064 10.726h-6.429l-2.7-3.6c-0.189-0.252-0.486-0.4-0.8-0.4h-2.499c-0.651 0-1.128 0.611-0.97 1.242l1.969 6.758-1.969 6.758c-0.158 0.631 0.319 1.242 0.97 1.242h2.499c0.315 0 0.611-0.148 0.8-0.4l2.7-3.6h6.429l-3.064 10.725c-0.182 0.639 0.297 1.275 0.961 1.275h4.094c0.359 0 0.69-0.192 0.868-0.504l6.569-11.496h7.143c2.209 0 6-1.791 6-4s-3.791-4-6-4z"></path>
</symbol>
<symbol id="wcv-icon-plus" viewBox="0 0 28 32">
<title>plus</title>
<path d="M26 13h-9v-9c0-1.104-0.896-2-2-2h-2c-1.104 0-2 0.896-2 2v9h-9c-1.104 0-2 0.896-2 2v2c0 1.104 0.896 2 2 2h9v9c0 1.104 0.896 2 2 2h2c1.104 0 2-0.896 2-2v-9h9c1.104 0 2-0.896 2-2v-2c0-1.104-0.896-2-2-2z"></path>
</symbol>
<symbol id="wcv-icon-plus-square" viewBox="0 0 28 32">
<title>plus-square</title>
<path d="M25 2h-22c-1.656 0-3 1.344-3 3v22c0 1.656 1.344 3 3 3h22c1.656 0 3-1.344 3-3v-22c0-1.656-1.344-3-3-3zM23 17.75c0 0.413-0.337 0.75-0.75 0.75h-5.75v5.75c0 0.413-0.337 0.75-0.75 0.75h-3.5c-0.412 0-0.75-0.337-0.75-0.75v-5.75h-5.75c-0.412 0-0.75-0.337-0.75-0.75v-3.5c0-0.412 0.338-0.75 0.75-0.75h5.75v-5.75c0-0.412 0.338-0.75 0.75-0.75h3.5c0.413 0 0.75 0.338 0.75 0.75v5.75h5.75c0.413 0 0.75 0.338 0.75 0.75v3.5z"></path>
</symbol>
<symbol id="wcv-icon-plus-circle" viewBox="0 0 32 32">
<title>plus-circle</title>
<path d="M16 0.5c-8.563 0-15.5 6.938-15.5 15.5s6.938 15.5 15.5 15.5 15.5-6.938 15.5-15.5-6.938-15.5-15.5-15.5zM25 17.75c0 0.413-0.337 0.75-0.75 0.75h-5.75v5.75c0 0.413-0.337 0.75-0.75 0.75h-3.5c-0.412 0-0.75-0.337-0.75-0.75v-5.75h-5.75c-0.412 0-0.75-0.337-0.75-0.75v-3.5c0-0.412 0.338-0.75 0.75-0.75h5.75v-5.75c0-0.412 0.338-0.75 0.75-0.75h3.5c0.413 0 0.75 0.338 0.75 0.75v5.75h5.75c0.413 0 0.75 0.338 0.75 0.75v3.5z"></path>
</symbol>
<symbol id="wcv-icon-flag" viewBox="0 0 32 32">
<title>flag</title>
<path d="M0 0h4v32h-4v-32z"></path>
<path d="M26 20.094c2.582 0 4.83-0.625 6-1.547v-16c-1.17 0.922-3.418 1.547-6 1.547s-4.83-0.625-6-1.547v16c1.17 0.922 3.418 1.547 6 1.547z"></path>
<path d="M19 1.016c-1.466-0.623-3.61-1.016-6-1.016-3.012 0-5.635 0.625-7 1.547v16c1.365-0.922 3.988-1.547 7-1.547 2.39 0 4.534 0.393 6 1.016v-16z"></path>
</symbol>
</defs>
</svg>